{"title":"Beyond.the.Trophy.2012 WEBRip XViD juggs","uid":8278874,"size":741927079,"categoryP":"video","categoryS":"movies","magnet":"?xt=urn:btih:a82279fd4b6f7690d43156355e923cbdaa66c81a&amp;dn=Beyond.the.Trophy.2012+WEBRip+XViD+juggs&amp;tr=udp%3A%2F%2Ftracker.openbittorrent.com%3A80&amp;tr=udp%3A%2F%2Fopen.demonii.com%3A1337&amp;tr=udp%3A%2F%2Ftracker.coppersurfer.tk%3A6969&amp;tr=udp%3A%2F%2Fexodus.desync.com%3A6969","seeders":1,"leechers":0,"uploader":"juggs99","files":3,"time":1363788292,"description":"Source : NGB\n &lt;a href=&quot;\nhttp://www.imdb.com/title/tt1891970/&quot; rel=&quot;nofollow&quot; target=&quot;_NEW&quot;&gt;\nhttp://www.imdb.com/title/tt1891970/&lt;/a&gt;\n\n\nFormat : AVI\nFormat/Info : Audio Video Interleave\nFile size : 700 MiB\nDuration : 1h 38mn\nOverall bit rate : 999 Kbps\nWriting library : VirtualDub build 32842/release\n\nVideo\nID : 0\nFormat : MPEG-4 Visual\nFormat profile : Advanced Simple@L5\nFormat settings, BVOP : 4\nFormat settings, QPel : No\nFormat settings, GMC : No warppoints\nFormat settings, Matrix : Default (H.263)\nMuxing mode : Packed bitstream\nCodec ID : XVID\nCodec ID/Hint : XviD\nDuration : 1h 38mn\nBit rate : 861 Kbps\nWidth : 640 pixels\nHeight : 352 pixels\nDisplay aspect ratio : 16:9\nFrame rate : 23.976 fps\nColor space : YUV\nChroma subsampling : 4:2:0\nBit depth : 8 bits\nScan type : Progressive\nCompression mode : Lossy\nBits/(Pixel*Frame) : 0.159\nStream size : 604 MiB (86%)\nWriting library : XviD 64\n\nAudio\nID : 1\nFormat : MPEG Audio\nFormat version : Version 1\nFormat profile : Layer 3\nCodec ID : 55\nCodec ID/Hint : MP3\nDuration : 1h 38mn\nBit rate mode : Constant\nBit rate : 128 Kbps\nChannel(s) : 2 channels\nSampling rate : 44.1 KHz\nCompression mode : Lossy\nStream size : 89.8 MiB (13%)\nAlignment : Split accross interleaves\nInterleave, duration : 42 ms (1.00 video frame)\nInterleave, preload duration : 500 ms\nWriting library : LAME3.99r\nEncoding settings : -m s -V 4 -q 3 -lowpass 17 -b 128\n\n\nPlot\nTROPHY tells the story of men's obsession with power and how far they will go to claim the &quot;PRIZE&quot;. Two rival gangs in Los Angeles and Las Vegas, led by Gino (Robert Miano) and Cole (Michael Madsen), are vying for control. Danny (Michael Masini), an LAPD undercover police detective, goes deep into gangland to infiltrate one gang to bring down both. Along the way, he becomes entangled with the beautiful and seductive Angela (Ali Costello), whose relationship with her husband Jake and mob leader Gino makes her the focal point of an intoxicating romantic equation-with deadly consequences.\n\n &lt;a href=&quot;\nhttp://www.shotpix.com/images/33177568881839474860.png&quot; rel=&quot;nofollow&quot; target=&quot;_NEW&quot;&gt;\nhttp://www.shotpix.com/images/33177568881839474860.png&lt;/a&gt; &lt;a href=&quot;\nhttp://www.shotpix.com/images/20931361637754675112.png&quot; rel=&quot;nofollow&quot; target=&quot;_NEW&quot;&gt;\nhttp://www.shotpix.com/images/20931361637754675112.png&lt;/a&gt; &lt;a href=&quot;\nhttp://www.shotpix.com/images/06041807602606966641.png&quot; rel=&quot;nofollow&quot; target=&quot;_NEW&quot;&gt;\nhttp://www.shotpix.com/images/06041807602606966641.png&lt;/a&gt; &lt;a href=&quot;\nhttp://www.shotpix.com/images/55506433219440241419.png&quot; rel=&quot;nofollow&quot; target=&quot;_NEW&quot;&gt;\nhttp://www.shotpix.com/images/55506433219440241419.png&lt;/a&gt;","torrent":{"xt":"urn:btih:a82279fd4b6f7690d43156355e923cbdaa66c81a","amp;dn":"Beyond.the.Trophy.2012+WEBRip+XViD+juggs","amp;tr":["udp%3A%2F%2Ftracker.openbittorrent.com%3A80","udp%3A%2F%2Fopen.demonii.com%3A1337","udp%3A%2F%2Ftracker.coppersurfer.tk%3A6969","udp%3A%2F%2Fexodus.desync.com%3A6969"],"infoHash":"a82279fd4b6f7690d43156355e923cbdaa66c81a","infoHashBuffer":{"type":"Buffer","data":[168,34,121,253,75,111,118,144,212,49,86,53,94,146,60,189,170,102,200,26]},"announce":[],"urlList":[]}}